<?plantuml 1.2026.2?><svg xmlns="http://www.w3.org/2000/svg" xmlns:xlink="http://www.w3.org/1999/xlink" contentStyleType="text/css" data-diagram-type="ACTIVITY" height="548px" preserveAspectRatio="none" style="width:661px;height:548px;background:#FFFFFF;" version="1.1" viewBox="0 0 661 548" width="661px" zoomAndPan="magnify"><title>Translate Timestamp Column Metadata</title><defs/><g><g class="title" data-source-line="4"><text fill="#000000" font-family="Calibri" font-size="14" font-weight="bold" lengthAdjust="spacing" textLength="274.007" x="192.3265" y="36.9659">Translate Timestamp Column Metadata</text></g><ellipse cx="325.412" cy="64.0679" fill="#222222" rx="10" ry="10" style="stroke:#222222;stroke-width:1;"/><rect fill="#F1F1F1" height="40.3441" rx="12.5" ry="12.5" style="stroke:#181818;stroke-width:0.5;" width="343.3823" x="153.7208" y="94.0679"/><text fill="#000000" font-family="Calibri" font-size="12" lengthAdjust="spacing" textLength="319.3823" x="165.7208" y="118.896">Read the timestamp column type from catalog metadata</text><rect fill="#F1F1F1" height="40.3441" rx="12.5" ry="12.5" style="stroke:#181818;stroke-width:0.5;" width="181.4531" x="234.6854" y="205.903"/><text fill="#000000" font-family="Calibri" font-size="12" lengthAdjust="spacing" textLength="157.4531" x="246.6854" y="230.7311">Parse the numeric precision</text><polygon fill="#F1F1F1" points="212.2467,154.412,438.5772,154.412,450.5772,166.412,438.5772,178.412,212.2467,178.412,200.2467,166.412,212.2467,154.412" style="stroke:#181818;stroke-width:0.5;"/><text fill="#000000" font-family="Calibri" font-size="11" lengthAdjust="spacing" textLength="17.0829" x="331.412" y="192.1709">yes</text><text fill="#000000" font-family="Calibri" font-size="11" lengthAdjust="spacing" textLength="222.3304" x="214.2467" y="170.68">Does the type declare an explicit precision?</text><polygon fill="#F1F1F1" points="325.412,266.2471,337.412,278.2471,325.412,290.2471,313.412,278.2471,325.412,266.2471" style="stroke:#181818;stroke-width:0.5;"/><polygon fill="#F1F1F1" points="247.1605,310.2471,403.6634,310.2471,415.6634,322.2471,403.6634,334.2471,247.1605,334.2471,235.1605,322.2471,247.1605,310.2471" style="stroke:#181818;stroke-width:0.5;"/><text fill="#000000" font-family="Calibri" font-size="11" lengthAdjust="spacing" textLength="152.5029" x="249.1605" y="326.5151">Is it WITH LOCAL TIME ZONE?</text><text fill="#000000" font-family="Calibri" font-size="11" lengthAdjust="spacing" textLength="17.0829" x="216.0776" y="317.0241">yes</text><text fill="#000000" font-family="Calibri" font-size="11" lengthAdjust="spacing" textLength="13.4529" x="417.6634" y="317.0241">no</text><rect fill="#F1F1F1" height="56.6882" rx="12.5" ry="12.5" style="stroke:#181818;stroke-width:0.5;" width="298.9939" x="11" y="344.2471"/><text fill="#000000" font-family="Calibri" font-size="12" lengthAdjust="spacing" textLength="192.3734" x="23" y="369.0752">Create TIMESTAMP metadata with</text><text fill="#000000" font-family="Calibri" font-size="12" lengthAdjust="spacing" textLength="274.9939" x="23" y="385.4193">withLocalTimeZone = true and optional precision</text><rect fill="#F1F1F1" height="40.3441" rx="12.5" ry="12.5" style="stroke:#181818;stroke-width:0.5;" width="320.6661" x="329.9939" y="344.2471"/><text fill="#000000" font-family="Calibri" font-size="12" lengthAdjust="spacing" textLength="296.6661" x="341.9939" y="369.0752">Create TIMESTAMP metadata with optional precision</text><polygon fill="#F1F1F1" points="325.412,410.9353,337.412,422.9353,325.412,434.9353,313.412,422.9353,325.412,410.9353" style="stroke:#181818;stroke-width:0.5;"/><rect fill="#F1F1F1" height="40.3441" rx="12.5" ry="12.5" style="stroke:#181818;stroke-width:0.5;" width="186.6251" x="232.0994" y="454.9353"/><text fill="#000000" font-family="Calibri" font-size="12" lengthAdjust="spacing" textLength="162.6251" x="244.0994" y="479.7634">Return the column metadata</text><ellipse cx="325.412" cy="526.2794" fill="none" rx="11" ry="11" style="stroke:#222222;stroke-width:1;"/><ellipse cx="325.412" cy="526.2794" fill="#222222" rx="6" ry="6" style="stroke:#222222;stroke-width:1;"/><line style="stroke:#181818;stroke-width:1;" x1="325.412" x2="325.412" y1="74.0679" y2="94.0679"/><polygon fill="#181818" points="321.412,84.0679,329.412,84.0679,325.412,94.0679" style="stroke:#181818;stroke-width:1;"/><line style="stroke:#181818;stroke-width:1;" x1="325.412" x2="325.412" y1="178.412" y2="205.903"/><polygon fill="#181818" points="321.412,195.903,329.412,195.903,325.412,205.903" style="stroke:#181818;stroke-width:1;"/><line style="stroke:#181818;stroke-width:1;" x1="450.5772" x2="462.5772" y1="166.412" y2="166.412"/><polygon fill="#181818" points="458.5772,218.075,466.5772,218.075,462.5772,228.075" style="stroke:#181818;stroke-width:1;"/><line style="stroke:#181818;stroke-width:1;" x1="462.5772" x2="462.5772" y1="166.412" y2="278.2471"/><line style="stroke:#181818;stroke-width:1;" x1="462.5772" x2="337.412" y1="278.2471" y2="278.2471"/><polygon fill="#181818" points="347.412,274.2471,337.412,278.2471,347.412,282.2471" style="stroke:#181818;stroke-width:1;"/><line style="stroke:#181818;stroke-width:1;" x1="325.412" x2="325.412" y1="246.2471" y2="266.2471"/><polygon fill="#181818" points="321.412,256.2471,329.412,256.2471,325.412,266.2471" style="stroke:#181818;stroke-width:1;"/><line style="stroke:#181818;stroke-width:1;" x1="325.412" x2="325.412" y1="134.412" y2="154.412"/><polygon fill="#181818" points="321.412,144.412,329.412,144.412,325.412,154.412" style="stroke:#181818;stroke-width:1;"/><line style="stroke:#181818;stroke-width:1;" x1="235.1605" x2="160.497" y1="322.2471" y2="322.2471"/><line style="stroke:#181818;stroke-width:1;" x1="160.497" x2="160.497" y1="322.2471" y2="344.2471"/><polygon fill="#181818" points="156.497,334.2471,164.497,334.2471,160.497,344.2471" style="stroke:#181818;stroke-width:1;"/><line style="stroke:#181818;stroke-width:1;" x1="415.6634" x2="490.327" y1="322.2471" y2="322.2471"/><line style="stroke:#181818;stroke-width:1;" x1="490.327" x2="490.327" y1="322.2471" y2="344.2471"/><polygon fill="#181818" points="486.327,334.2471,494.327,334.2471,490.327,344.2471" style="stroke:#181818;stroke-width:1;"/><line style="stroke:#181818;stroke-width:1;" x1="160.497" x2="160.497" y1="400.9353" y2="422.9353"/><line style="stroke:#181818;stroke-width:1;" x1="160.497" x2="313.412" y1="422.9353" y2="422.9353"/><polygon fill="#181818" points="303.412,418.9353,313.412,422.9353,303.412,426.9353" style="stroke:#181818;stroke-width:1;"/><line style="stroke:#181818;stroke-width:1;" x1="490.327" x2="490.327" y1="384.5912" y2="422.9353"/><line style="stroke:#181818;stroke-width:1;" x1="490.327" x2="337.412" y1="422.9353" y2="422.9353"/><polygon fill="#181818" points="347.412,418.9353,337.412,422.9353,347.412,426.9353" style="stroke:#181818;stroke-width:1;"/><line style="stroke:#181818;stroke-width:1;" x1="325.412" x2="325.412" y1="290.2471" y2="310.2471"/><polygon fill="#181818" points="321.412,300.2471,329.412,300.2471,325.412,310.2471" style="stroke:#181818;stroke-width:1;"/><line style="stroke:#181818;stroke-width:1;" x1="325.412" x2="325.412" y1="434.9353" y2="454.9353"/><polygon fill="#181818" points="321.412,444.9353,329.412,444.9353,325.412,454.9353" style="stroke:#181818;stroke-width:1;"/><line style="stroke:#181818;stroke-width:1;" x1="325.412" x2="325.412" y1="495.2794" y2="515.2794"/><polygon fill="#181818" points="321.412,505.2794,329.412,505.2794,325.412,515.2794" style="stroke:#181818;stroke-width:1;"/><?plantuml-src ZP1FImCn5CJl-HJZoHRSYjUAbL8B5behkY1KF8JiQnlClgp9MxINVdQpsty8FRYdiCpCRzvSM3QkBWYzthLnfBaNFoqhTOdt8ZAo0G9zRGFfml8g4rjI55rMMHN8s6WzPylWoynuLvUSbIIwqAAtDnWCOClANQ6MPFbGOiLH7tdG79qMGdx8mgWrOxOtAvL-1r7zbqI5h0b7B7OSoAOYD62OP71-XGFvLjabEW-UuixP20ioJWU2Pj1FvQonWcF_-suZP7Gs5BiAwUi_wn2fjNDTKh3cfBvLn8LTjf19H0fwc-IFcCv7modooMoCnVnfV2Ppb2PiZawIrtmuUpuMnhULTQjf7bDlj6kMMNWct452tVGku2j9UEt-L76fPeVzln3d4zfZqj1I1sultWzycZEAhtu1?></g></svg>